<svg xmlns="http://www.w3.org/2000/svg" width="1070.574" height="862.856" viewBox="0 0 1070.574 862.856" xmlns:xlink="http://www.w3.org/1999/xlink" role="img" artist="Katerina Limpitsouni" source="https://undraw.co/"><g transform="translate(-481.593 -133.021)"><path d="M1176.822,531.313c-75.795-56.663-194.508-110.246-325.7-147.022-119.451-33.48-235.958-49.645-328.087-45.517l-.48-10.714c93.227-4.175,210.944,12.126,331.457,45.9,132.415,37.114,252.415,91.335,329.227,148.754Z" transform="translate(193.053 62.688)" fill="#3f3d56"/><path d="M1212.932,644.491A356.891,356.891,0,0,1,1182.046,790.2q-2.557,5.758-5.33,11.411A358.247,358.247,0,0,1,496.541,644.491q0-12.436.847-24.676.4-6.225,1.04-12.375c19.727-189.6,184.479-330.533,374.842-320.661s339.653,167.095,339.663,357.715Z" transform="translate(149.073 -6.845)" fill="#f2f2f2"/><path d="M1181.514,588.413q-2.557,5.758-5.33,11.411-15.7,1.7-33.052,2.477c-9.577.429-19.434.643-29.5.643-87.962,0-193.823-16.237-301.968-46.546C691.139,522.62,582.1,475.368,504.631,423.344q-3.959-2.655-7.775-5.319.4-6.225,1.04-12.375,6.161,4.392,12.709,8.793c76.561,51.4,184.5,98.15,303.952,131.632,107.2,30.05,212.065,46.147,299.018,46.147q14.912,0,29.074-.633Q1163.272,590.655,1181.514,588.413Z" transform="translate(149.607 194.945)" opacity="0.1" style="isolation:isolate"/><path d="M1175.7,726.224c-87.959,0-193.826-16.236-301.967-46.546C753.216,645.9,644.176,598.645,566.7,546.623,487.61,493.515,450.524,441.184,462.271,399.271s70.63-67.345,165.8-71.611l.48,10.714c-44.444,1.991-80.664,8.6-107.653,19.634-26.924,11.009-43.175,25.866-48.3,44.157s1.035,39.429,18.316,62.828c17.323,23.456,44.832,47.924,81.768,72.726,76.553,51.4,184.5,98.154,303.95,131.634C983.834,699.4,1088.689,715.5,1175.65,715.5q14.9,0,29.068-.633c44.445-1.993,80.664-8.6,107.655-19.634,26.923-11.009,43.175-25.865,48.3-44.157,9.2-32.843-18.613-75.519-78.336-120.166l6.423-8.589c30.731,22.975,53.479,45.621,67.615,67.309,15.152,23.251,20.072,44.9,14.623,64.34-11.748,41.914-70.632,67.344-165.8,71.609C1195.621,726.008,1185.772,726.224,1175.7,726.224Z" transform="translate(87.533 63.091)" fill="#3f3d56"/><circle cx="30.1" cy="30.1" r="30.1" transform="translate(747.857 547.345)" opacity="0.1" style="isolation:isolate"/><circle cx="30.1" cy="30.1" r="30.1" transform="translate(1080.329 849.715)" opacity="0.1" style="isolation:isolate"/><circle cx="30.1" cy="30.1" r="30.1" transform="translate(979.079 593.863)" opacity="0.1" style="isolation:isolate"/><circle cx="30.1" cy="30.1" r="30.1" transform="translate(762.908 759.415)" opacity="0.1" style="isolation:isolate"/><circle cx="30.1" cy="30.1" r="30.1" transform="translate(1140.525 432.417)" opacity="0.1" style="isolation:isolate"/><circle cx="30.1" cy="30.1" r="30.1" transform="translate(1240.403 636.278)" opacity="0.1" style="isolation:isolate"/><g transform="translate(1055.503 694.91)"><circle cx="39.678" cy="39.678" r="39.678" transform="translate(16.418 17.786)" fill="#fff"/><path d="M726.918,286.191a56.1,56.1,0,0,0-56.1,56.1c0,30.98,56.1,132.715,56.1,132.715s56.1-101.728,56.1-132.715a56.1,56.1,0,0,0-56.1-56.1Zm0,83.459a26,26,0,1,1,26-26A26,26,0,0,1,726.918,369.65Z" transform="translate(-670.822 -286.191)" fill="#6c63ff"/></g><circle cx="39.678" cy="39.678" r="39.678" transform="translate(738.125 404.59)" fill="#fff"/><path d="M580.917,326.191a56.1,56.1,0,0,0-56.1,56.1c0,30.98,56.1,132.715,56.1,132.715s56.1-101.728,56.1-132.715a56.1,56.1,0,0,0-56.1-56.1Zm0,83.459a26,26,0,1,1,26-26,26,26,0,0,1-26,26Z" transform="translate(196.884 60.613)" fill="#6c63ff"/><circle cx="39.678" cy="39.678" r="39.678" transform="translate(1235.883 496.07)" fill="#fff"/><path d="M765.918,360.191a56.1,56.1,0,0,0-56.1,56.1c0,30.98,56.1,132.715,56.1,132.715s56.1-101.728,56.1-132.715a56.1,56.1,0,0,0-56.1-56.1Zm0,83.459a26,26,0,1,1,26-26A26,26,0,0,1,765.918,443.65Z" transform="translate(509.644 118.094)" fill="#6c63ff" style="isolation:isolate"/><g transform="translate(1158.227 115.877) rotate(7)"><path d="M270.706,50.047c-3.077,1.134-8.48,2.066-14.734,2.815-17,2.041-40.307,2.765-40.307,2.765S95.875,65.562,6.094,28.612c0,0-13.059-6.846-.945-16.06a39.456,39.456,0,0,1,5.926-3.615l.148-.148a31.453,31.453,0,0,1,4.45-3.429C20.325,2.352,28.178-1.212,37.738.4L273.54,38.54S282.153,45.818,270.706,50.047Z" transform="translate(9.918 63.628)" fill="#3f3d56"/><path d="M0,35.023,49.363,0,71.12,3.763,49.817,40.8S.567,41.195,0,35.023Z" transform="translate(233.642 61.367)" fill="#3f3d56"/><path d="M0,27.576,98.327,0l15.849,3.313L69.759,23.293,55.879,38.824Z" transform="translate(109.364 47.537)" fill="#3f3d56"/><path d="M255.972,40.31c-17,2.041-40.307,2.765-40.307,2.765S95.875,53.01,6.094,16.06c0,0-13.059-6.846-.945-16.06l.041.17S24.563,13.263,117.124,24.194Z" transform="translate(9.918 76.18)" fill="#6c63ff"/><path d="M.212,5.322l43.96,17.949,11.043-1.225L28.921,2.283S-2.883-4.5.212,5.322Z" transform="translate(249.874 110.412)" fill="#3f3d56"/><path d="M9.891,9.28C7.794,9.315,2.988,5.8,0,3.429A31.455,31.455,0,0,1,4.45,0c2.409,1.848,6.695,4.84,9.078,4.723C16.97,4.582,13.049,9.223,9.891,9.28Z" transform="translate(21.158 68.988)" fill="#6c63ff"/><path d="M129.464,70.916,101.24,72.393,21.885,18.886,7.155,8.951,0,4.123c13.424-11.336,68.194,4.3,68.194,4.3a4.833,4.833,0,0,1,1.335,3.98,24.6,24.6,0,0,1-2.072,7.9c-.132.315-.214.482-.214.482Z" transform="translate(101.296 106.863)" fill="#3f3d56"/><path d="M27.289,12.127a9.133,9.133,0,0,0-5.281.573,7.756,7.756,0,0,1-6.339,0,8.883,8.883,0,0,0-7.46.145,4.639,4.639,0,0,1-2.148.539C3.039,13.383.523,10.335,0,6.317A5.749,5.749,0,0,0,1.512,4.689,9.1,9.1,0,0,1,9.113,0a9.033,9.033,0,0,1,7.57,4.629,5.826,5.826,0,0,0,5.023,2.762h.079C24.19,7.384,26.275,9.312,27.289,12.127Z" transform="translate(101.309 150.521)" opacity="0.03"/><path d="M36.522,10.744l-4.9,3.1,2.966-5.394a4.833,4.833,0,0,0-2.954-1.055h-.079a5.418,5.418,0,0,1-1.014-.076L28.889,8.37,29.6,7.079a5.914,5.914,0,0,1-2.9-2.2L23.737,6.764l1.871-3.407A8.669,8.669,0,0,0,18.966,0a9.1,9.1,0,0,0-7.6,4.692A5.687,5.687,0,0,1,6.326,7.4H6.163C2.759,7.4,0,11.258,0,16.019s2.759,8.619,6.163,8.619A4.6,4.6,0,0,0,8.307,24.1a8.9,8.9,0,0,1,7.46-.145,7.781,7.781,0,0,0,6.342,0A8.9,8.9,0,0,1,29.5,24.1a4.634,4.634,0,0,0,2.126.526c3.4,0,6.163-3.857,6.163-8.619A10.948,10.948,0,0,0,36.522,10.744Z" transform="translate(239.527 135.198)" fill="#f2f2f2"/><path d="M27.289,12.127a9.132,9.132,0,0,0-5.281.573,7.757,7.757,0,0,1-6.339,0,8.883,8.883,0,0,0-7.46.145,4.641,4.641,0,0,1-2.148.539C3.039,13.383.523,10.335,0,6.317A5.751,5.751,0,0,0,1.511,4.689,9.1,9.1,0,0,1,9.113,0a9.033,9.033,0,0,1,7.57,4.629,5.826,5.826,0,0,0,5.038,2.762H21.8C24.19,7.384,26.275,9.312,27.289,12.127Z" transform="translate(239.549 146.427)" opacity="0.03"/><path d="M36.522,10.744l-4.9,3.1,2.966-5.394a4.833,4.833,0,0,0-2.954-1.055h-.079a5.421,5.421,0,0,1-1.014-.076L28.889,8.37,29.6,7.079a5.914,5.914,0,0,1-2.9-2.2L23.737,6.764l1.871-3.407A8.669,8.669,0,0,0,18.966,0a9.1,9.1,0,0,0-7.6,4.692A5.687,5.687,0,0,1,6.326,7.4H6.163C2.759,7.4,0,11.258,0,16.019s2.759,8.619,6.163,8.619A4.6,4.6,0,0,0,8.307,24.1a8.9,8.9,0,0,1,7.46-.145,7.781,7.781,0,0,0,6.342.016,8.9,8.9,0,0,1,7.391.142,4.636,4.636,0,0,0,2.126.526c3.4,0,6.163-3.858,6.163-8.619A10.949,10.949,0,0,0,36.522,10.744Z" transform="translate(45.539 146.137)" fill="#f2f2f2"/><path d="M27.289,12.127a9.132,9.132,0,0,0-5.281.573,7.756,7.756,0,0,1-6.339,0,8.883,8.883,0,0,0-7.46.145,4.639,4.639,0,0,1-2.148.538C3.039,13.383.523,10.335,0,6.317A5.751,5.751,0,0,0,1.511,4.689,9.1,9.1,0,0,1,9.113,0a9.033,9.033,0,0,1,7.57,4.629,5.825,5.825,0,0,0,5.038,2.762H21.8C24.19,7.384,26.275,9.312,27.289,12.127Z" transform="translate(239.549 43.141)" opacity="0.03"/><path d="M18.195,5.344,15.754,6.89,17.234,4.2a2.4,2.4,0,0,0-1.474-.529h-.038a3,3,0,0,1-.507-.038l-.825.523.353-.63a2.947,2.947,0,0,1-1.445-1.1l-1.477.945.945-1.7A4.317,4.317,0,0,0,9.453,0,4.5,4.5,0,0,0,5.674,2.34,2.834,2.834,0,0,1,3.155,3.691H3.073C1.376,3.691,0,5.618,0,7.992s1.376,4.3,3.073,4.3a2.305,2.305,0,0,0,1.071-.268,4.431,4.431,0,0,1,3.722-.072,3.876,3.876,0,0,0,3.149,0,4.434,4.434,0,0,1,3.687.072,2.336,2.336,0,0,0,1.058.261c1.7,0,3.073-1.924,3.073-4.3a5.486,5.486,0,0,0-.639-2.642Z" transform="translate(0 110.251)" fill="#f2f2f2"/><path d="M13.616,6.056a4.522,4.522,0,0,0-2.636.287,3.917,3.917,0,0,1-1.574.334,3.862,3.862,0,0,1-1.59-.343,4.44,4.44,0,0,0-3.722.076,2.292,2.292,0,0,1-1.068.268C1.518,6.676.261,5.155,0,3.152A2.959,2.959,0,0,0,.756,2.34,4.528,4.528,0,0,1,4.535,0,4.547,4.547,0,0,1,8.313,2.311a2.9,2.9,0,0,0,2.519,1.376h.041A3.169,3.169,0,0,1,13.616,6.056Z" transform="translate(55.668 31.748)" opacity="0.03"/><path d="M18.195,5.344,15.754,6.89,17.234,4.2a2.4,2.4,0,0,0-1.474-.529h-.038a3,3,0,0,1-.507-.038l-.825.523.353-.63a2.948,2.948,0,0,1-1.445-1.1l-1.477.945.945-1.7A4.317,4.317,0,0,0,9.453,0,4.5,4.5,0,0,0,5.674,2.34,2.834,2.834,0,0,1,3.155,3.691H3.073C1.376,3.691,0,5.618,0,7.992s1.376,4.3,3.073,4.3a2.3,2.3,0,0,0,1.071-.268,4.431,4.431,0,0,1,3.722-.072,3.877,3.877,0,0,0,3.149,0,4.434,4.434,0,0,1,3.687.072,2.336,2.336,0,0,0,1.058.261c1.7,0,3.073-1.924,3.073-4.3a5.485,5.485,0,0,0-.639-2.642Z" transform="translate(272.963 180.153)" fill="#f2f2f2"/><path d="M13.616,6.056a4.522,4.522,0,0,0-2.636.287,3.915,3.915,0,0,1-1.574.334,3.861,3.861,0,0,1-1.59-.343,4.44,4.44,0,0,0-3.722.076,2.29,2.29,0,0,1-1.067.268C1.518,6.676.261,5.155,0,3.152A2.958,2.958,0,0,0,.756,2.34,4.528,4.528,0,0,1,4.534,0,4.547,4.547,0,0,1,8.313,2.311a2.9,2.9,0,0,0,2.519,1.376h.041A3.169,3.169,0,0,1,13.616,6.056Z" transform="translate(272.947 185.733)" opacity="0.03"/><path d="M18.195,5.344,15.754,6.89,17.234,4.2a2.4,2.4,0,0,0-1.474-.529h-.038a3,3,0,0,1-.507-.038l-.825.523.353-.63a2.948,2.948,0,0,1-1.445-1.1l-1.477.945.945-1.7A4.317,4.317,0,0,0,9.453,0,4.5,4.5,0,0,0,5.674,2.34,2.834,2.834,0,0,1,3.155,3.691H3.073C1.376,3.691,0,5.618,0,7.992s1.376,4.3,3.073,4.3a2.305,2.305,0,0,0,1.071-.268,4.431,4.431,0,0,1,3.722-.073,3.876,3.876,0,0,0,3.149,0,4.434,4.434,0,0,1,3.687.072,2.337,2.337,0,0,0,1.058.261c1.7,0,3.073-1.924,3.073-4.3A5.485,5.485,0,0,0,18.195,5.344Z" transform="translate(46.237 188.34)" fill="#f2f2f2"/><path d="M13.616,6.056a4.521,4.521,0,0,0-2.636.287,3.915,3.915,0,0,1-1.574.334,3.861,3.861,0,0,1-1.59-.343,4.44,4.44,0,0,0-3.722.076,2.291,2.291,0,0,1-1.068.268C1.518,6.676.261,5.155,0,3.152A2.958,2.958,0,0,0,.756,2.34,4.528,4.528,0,0,1,4.535,0,4.547,4.547,0,0,1,8.313,2.311a2.9,2.9,0,0,0,2.519,1.376h.041A3.17,3.17,0,0,1,13.616,6.056Z" transform="translate(46.221 193.92)" opacity="0.03"/><path d="M36.522,10.744l-4.9,3.1,2.966-5.394a4.834,4.834,0,0,0-2.954-1.055h-.079a5.42,5.42,0,0,1-1.014-.076L28.889,8.37,29.6,7.079a5.914,5.914,0,0,1-2.9-2.2L23.737,6.764l1.87-3.407A8.668,8.668,0,0,0,18.966,0a9.1,9.1,0,0,0-7.6,4.692A5.687,5.687,0,0,1,6.326,7.4H6.163C2.759,7.4,0,11.258,0,16.019s2.759,8.619,6.163,8.619A4.6,4.6,0,0,0,8.307,24.1a8.9,8.9,0,0,1,7.46-.145,7.781,7.781,0,0,0,6.342.016,8.9,8.9,0,0,1,7.391.142,4.636,4.636,0,0,0,2.126.526c3.4,0,6.163-3.857,6.163-8.619A10.948,10.948,0,0,0,36.522,10.744Z" transform="translate(175.871 206)" fill="#f2f2f2"/><path d="M27.289,12.127a9.132,9.132,0,0,0-5.281.573,7.756,7.756,0,0,1-6.339,0,8.883,8.883,0,0,0-7.46.145,4.639,4.639,0,0,1-2.148.538C3.039,13.383.523,10.335,0,6.317A5.75,5.75,0,0,0,1.511,4.689,9.1,9.1,0,0,1,9.113,0a9.033,9.033,0,0,1,7.57,4.629,5.826,5.826,0,0,0,5.038,2.762H21.8C24.19,7.384,26.275,9.312,27.289,12.127Z" transform="translate(140.671 0)" opacity="0.03"/><path d="M18.195,5.344,15.754,6.89,17.235,4.2a2.4,2.4,0,0,0-1.474-.529h-.038a3,3,0,0,1-.507-.038l-.825.523.353-.63a2.947,2.947,0,0,1-1.445-1.1l-1.477.945.944-1.7A4.317,4.317,0,0,0,9.453,0,4.5,4.5,0,0,0,5.675,2.34,2.834,2.834,0,0,1,3.155,3.691H3.074C1.376,3.691,0,5.618,0,7.992s1.376,4.3,3.074,4.3a2.3,2.3,0,0,0,1.071-.268,4.43,4.43,0,0,1,3.722-.072,3.877,3.877,0,0,0,3.149,0,4.433,4.433,0,0,1,3.687.072,2.336,2.336,0,0,0,1.058.261c1.7,0,3.073-1.924,3.073-4.3a5.488,5.488,0,0,0-.639-2.642Z" transform="translate(325.866 48.211)" fill="#f2f2f2"/><path d="M13.6,6.056a4.522,4.522,0,0,0-2.636.287,3.918,3.918,0,0,1-1.575.334,3.86,3.86,0,0,1-1.574-.343,4.44,4.44,0,0,0-3.722.076,2.292,2.292,0,0,1-1.068.268C1.518,6.676.261,5.155,0,3.152A2.958,2.958,0,0,0,.756,2.34,4.528,4.528,0,0,1,4.535,0,4.546,4.546,0,0,1,8.313,2.311a2.9,2.9,0,0,0,2.5,1.376h.041A3.169,3.169,0,0,1,13.6,6.056Z" transform="translate(325.866 53.791)" opacity="0.03"/></g><g transform="matrix(0.951, -0.309, 0.309, 0.951, 481.593, 835.259)"><rect width="21.444" height="3.404" transform="translate(0.566 86.595)" fill="#3f3d56"/><path d="M177.055,87.357l-4.424,1.023-168.15.09L2.968,84.948A35.559,35.559,0,0,1,.354,65.72c.724-4.866,2.539-9.7,6.661-11.8,0,0-10.107-35.316,15.016-47.782s85.475-2.084,85.475-2.084L143.5,33.084s16.978-.305,26.2,11.178a26.954,26.954,0,0,1,5.638,14.845l.364,5.973Z" transform="translate(0 0)" fill="#6c63ff"/><circle cx="20.763" cy="20.763" r="20.763" transform="translate(119.36 65.762)" fill="#3f3d56"/><circle cx="10.928" cy="10.928" r="10.928" transform="translate(129.194 75.598)" fill="#ccc"/><circle cx="20.763" cy="20.763" r="20.763" transform="translate(16.904 65.817)" fill="#3f3d56"/><circle cx="10.928" cy="10.928" r="10.928" transform="translate(26.739 75.652)" fill="#ccc"/><path d="M66.726,20.072,16.5,20.095H10.366L.014,20.1v-.756l-.007-9.1L0,.023H6.887L13.018.014,23.879.007H30.01L42.548,0Z" transform="translate(62.472 9.618)" fill="#fff"/><path d="M26.56,20.079.014,20.094.007,14.885v-9.1L0,.014H3.887L10.018.007,26.553,0Z" transform="translate(27.754 9.648)" fill="#fff"/><rect width="3.404" height="6.467" transform="translate(62.494 44.699)" fill="#3f3d56"/><rect width="3.404" height="6.467" transform="matrix(0.001, 1, -1, 0.001, 122.053, 35.474)" fill="#3f3d56"/><path d="M0,0H.374A7.114,7.114,0,0,1,7.488,7.114h0A7.114,7.114,0,0,1,.375,14.228H0V0Z" transform="translate(117.968 22.748)" fill="#3f3d56"/><path d="M12.186,20.818A11,11,0,0,1,6.184,0a26.954,26.954,0,0,1,5.638,14.845Z" transform="translate(163.515 44.262)" fill="#3f3d56"/></g><g transform="translate(1376.292 845.835) rotate(-30)"><circle cx="18.638" cy="18.638" r="18.638" transform="translate(109.417 60.396)" fill="#090814"/><circle cx="12.425" cy="12.425" r="12.425" transform="translate(115.629 66.609)" fill="#fff"/><circle cx="7.075" cy="7.075" r="7.075" transform="translate(120.979 71.958)" fill="#090814"/><circle cx="18.638" cy="18.638" r="18.638" transform="translate(1.733 60.396)" fill="#090814"/><circle cx="12.425" cy="12.425" r="12.425" transform="translate(7.945 66.609)" fill="#fff"/><path d="M153.55,70.171c-2.426-6.119-10.91-24.816-26.02-31a1.481,1.481,0,0,0-.362-.1L78.706,32.129a1.48,1.48,0,0,0-1.67,1.229L76.186,38.6a1.479,1.479,0,0,0,.214,1.035c2.461,3.817,18.234,29.734-7.024,29.734S37.158,51.3,36.053,48.106a1.5,1.5,0,0,1-.014-.928l7.655-24.246a1.47,1.47,0,0,0-.159-1.225L46.9,15.455l6.164,3.489,3.193.038,10.9,5.695,2.219-3.624L46.9,9.843s.038-2.6-7.21-4.666L28.3,0,26.921,1.726l3.451,2.761.345,2.071,2.416.69,4.832,9.319-1.381,2.671,1.677.818-.48-.11A1.477,1.477,0,0,0,36.1,20.8l-7.614,17.45a1.5,1.5,0,0,1-.556.652l-2.713,1.75a1.474,1.474,0,0,0-.566.68l-3.1,7.514a1.48,1.48,0,0,0-.1.718A30.481,30.481,0,0,0,0,65.925l7.248,5.867s11.362-7.351,30.138.3c3.265,5.08,8.025,9.295,14.9,9.692,18.123,1.049,48.151,2.085,51.6-2.057,2.526-3.034,4.283-4.925,5.046-5.722a1.49,1.49,0,0,1,1.022-.456L152.217,72.2a1.481,1.481,0,0,0,1.329-2.026Z" fill="#6c63ff"/><circle cx="5.522" cy="5.522" r="5.522" transform="translate(31.415 4.828)" fill="#090814"/><path d="M51.732,14.556c-.066,0-.131,0-.2,0L5.362,12.765A4.888,4.888,0,0,1,.9,9.451L.271,7.612A4.915,4.915,0,0,1,4.806,1.1L52.512,0a4.913,4.913,0,0,1,4.939,5.833l-.9,4.722a4.884,4.884,0,0,1-4.822,4Z" transform="translate(73.641 24.635)" fill="#090814"/><circle cx="7.075" cy="7.075" r="7.075" transform="translate(13.295 71.958)" fill="#090814"/><path d="M6.61,12.551a3.1,3.1,0,0,1-2.72-1.608l-3.5-6.33A3.065,3.065,0,0,1,.48,1.461,3.064,3.064,0,0,1,3.276,0L9.623.329a3.135,3.135,0,0,1,2.706,1.895l1.853,4.383a3.111,3.111,0,0,1-1.85,4.152l-4.7,1.622a3.078,3.078,0,0,1-1.018.173Z" transform="translate(137.314 46.34)" fill="#090814"/></g></g></svg>